<?xml version="1.0" encoding="UTF-8"?>
<svg xmlns="http://www.w3.org/2000/svg" width="578" height="632" viewBox="0 0 578 632">
  <style>
    .bg { fill: #07152f; }
    .panel { fill: #eef4ff; }
    .grid { stroke: #c7d5f0; stroke-width: 1; }
    .title { fill: #f7fbff; font: 700 22px Arial, sans-serif; }
    .meta { fill: #9fc7ff; font: 600 13px Arial, sans-serif; }
    .glyph { fill: #06132c; font: 700 19px Arial, sans-serif; text-anchor: middle; }
  </style>
  <rect class="bg" width="578" height="632" rx="18" />
  <text x="34" y="34" class="title">Level 374</text>
  <text x="34" y="52" class="meta">17x17 - 45 arrows - Expert</text>
  <rect class="panel" x="34" y="88" width="510" height="510" rx="12" />
  <line x1="34" y1="88" x2="544" y2="88" class="grid" />
  <line x1="34" y1="118" x2="544" y2="118" class="grid" />
  <line x1="34" y1="148" x2="544" y2="148" class="grid" />
  <line x1="34" y1="178" x2="544" y2="178" class="grid" />
  <line x1="34" y1="208" x2="544" y2="208" class="grid" />
  <line x1="34" y1="238" x2="544" y2="238" class="grid" />
  <line x1="34" y1="268" x2="544" y2="268" class="grid" />
  <line x1="34" y1="298" x2="544" y2="298" class="grid" />
  <line x1="34" y1="328" x2="544" y2="328" class="grid" />
  <line x1="34" y1="358" x2="544" y2="358" class="grid" />
  <line x1="34" y1="388" x2="544" y2="388" class="grid" />
  <line x1="34" y1="418" x2="544" y2="418" class="grid" />
  <line x1="34" y1="448" x2="544" y2="448" class="grid" />
  <line x1="34" y1="478" x2="544" y2="478" class="grid" />
  <line x1="34" y1="508" x2="544" y2="508" class="grid" />
  <line x1="34" y1="538" x2="544" y2="538" class="grid" />
  <line x1="34" y1="568" x2="544" y2="568" class="grid" />
  <line x1="34" y1="598" x2="544" y2="598" class="grid" />
  <line x1="34" y1="88" x2="34" y2="598" class="grid" />
  <line x1="64" y1="88" x2="64" y2="598" class="grid" />
  <line x1="94" y1="88" x2="94" y2="598" class="grid" />
  <line x1="124" y1="88" x2="124" y2="598" class="grid" />
  <line x1="154" y1="88" x2="154" y2="598" class="grid" />
  <line x1="184" y1="88" x2="184" y2="598" class="grid" />
  <line x1="214" y1="88" x2="214" y2="598" class="grid" />
  <line x1="244" y1="88" x2="244" y2="598" class="grid" />
  <line x1="274" y1="88" x2="274" y2="598" class="grid" />
  <line x1="304" y1="88" x2="304" y2="598" class="grid" />
  <line x1="334" y1="88" x2="334" y2="598" class="grid" />
  <line x1="364" y1="88" x2="364" y2="598" class="grid" />
  <line x1="394" y1="88" x2="394" y2="598" class="grid" />
  <line x1="424" y1="88" x2="424" y2="598" class="grid" />
  <line x1="454" y1="88" x2="454" y2="598" class="grid" />
  <line x1="484" y1="88" x2="484" y2="598" class="grid" />
  <line x1="514" y1="88" x2="514" y2="598" class="grid" />
  <line x1="544" y1="88" x2="544" y2="598" class="grid" />
  <polyline points="289,373 289,343 319,343 319,373" fill="none" stroke="#18d9ff" stroke-width="9" stroke-linecap="round" stroke-linejoin="round" opacity="0.92" />
<circle cx="319" cy="373" r="12" fill="#18d9ff" />
<text x="319" y="379" class="glyph">v</text>
<polyline points="289,313 289,283 319,283 319,313" fill="none" stroke="#f7f2ff" stroke-width="9" stroke-linecap="round" stroke-linejoin="round" opacity="0.92" />
<circle cx="319" cy="313" r="12" fill="#f7f2ff" />
<text x="319" y="319" class="glyph">v</text>
<polyline points="229,373 229,343 259,343 259,373" fill="none" stroke="#62ffb3" stroke-width="9" stroke-linecap="round" stroke-linejoin="round" opacity="0.92" />
<circle cx="259" cy="373" r="12" fill="#62ffb3" />
<text x="259" y="379" class="glyph">v</text>
<polyline points="349,373 349,343 379,343 379,373" fill="none" stroke="#ffd166" stroke-width="9" stroke-linecap="round" stroke-linejoin="round" opacity="0.92" />
<circle cx="379" cy="373" r="12" fill="#ffd166" />
<text x="379" y="379" class="glyph">v</text>
<polyline points="289,433 289,403 319,403 319,433" fill="none" stroke="#ff5b9f" stroke-width="9" stroke-linecap="round" stroke-linejoin="round" opacity="0.92" />
<circle cx="319" cy="433" r="12" fill="#ff5b9f" />
<text x="319" y="439" class="glyph">v</text>
<polyline points="289,253 289,223 319,223 319,253" fill="none" stroke="#8d7cff" stroke-width="9" stroke-linecap="round" stroke-linejoin="round" opacity="0.92" />
<circle cx="319" cy="253" r="12" fill="#8d7cff" />
<text x="319" y="259" class="glyph">v</text>
<polyline points="229,313 229,283 259,283 259,313" fill="none" stroke="#18d9ff" stroke-width="9" stroke-linecap="round" stroke-linejoin="round" opacity="0.92" />
<circle cx="259" cy="313" r="12" fill="#18d9ff" />
<text x="259" y="319" class="glyph">v</text>
<polyline points="349,313 349,283 379,283 379,313" fill="none" stroke="#f7f2ff" stroke-width="9" stroke-linecap="round" stroke-linejoin="round" opacity="0.92" />
<circle cx="379" cy="313" r="12" fill="#f7f2ff" />
<text x="379" y="319" class="glyph">v</text>
<polyline points="169,373 169,343 199,343 199,373" fill="none" stroke="#62ffb3" stroke-width="9" stroke-linecap="round" stroke-linejoin="round" opacity="0.92" />
<circle cx="199" cy="373" r="12" fill="#62ffb3" />
<text x="199" y="379" class="glyph">v</text>
<polyline points="409,373 409,343 439,343 439,373" fill="none" stroke="#ffd166" stroke-width="9" stroke-linecap="round" stroke-linejoin="round" opacity="0.92" />
<circle cx="439" cy="373" r="12" fill="#ffd166" />
<text x="439" y="379" class="glyph">v</text>
<polyline points="229,433 229,403 259,403 259,433" fill="none" stroke="#ff5b9f" stroke-width="9" stroke-linecap="round" stroke-linejoin="round" opacity="0.92" />
<circle cx="259" cy="433" r="12" fill="#ff5b9f" />
<text x="259" y="439" class="glyph">v</text>
<polyline points="349,433 349,403 379,403 379,433" fill="none" stroke="#8d7cff" stroke-width="9" stroke-linecap="round" stroke-linejoin="round" opacity="0.92" />
<circle cx="379" cy="433" r="12" fill="#8d7cff" />
<text x="379" y="439" class="glyph">v</text>
<polyline points="289,493 289,463 319,463 319,493" fill="none" stroke="#18d9ff" stroke-width="9" stroke-linecap="round" stroke-linejoin="round" opacity="0.92" />
<circle cx="319" cy="493" r="12" fill="#18d9ff" />
<text x="319" y="499" class="glyph">v</text>
<polyline points="289,193 289,163 319,163 319,193" fill="none" stroke="#f7f2ff" stroke-width="9" stroke-linecap="round" stroke-linejoin="round" opacity="0.92" />
<circle cx="319" cy="193" r="12" fill="#f7f2ff" />
<text x="319" y="199" class="glyph">v</text>
<polyline points="229,253 229,223 259,223 259,253" fill="none" stroke="#62ffb3" stroke-width="9" stroke-linecap="round" stroke-linejoin="round" opacity="0.92" />
<circle cx="259" cy="253" r="12" fill="#62ffb3" />
<text x="259" y="259" class="glyph">v</text>
<polyline points="349,253 349,223 379,223 379,253" fill="none" stroke="#ffd166" stroke-width="9" stroke-linecap="round" stroke-linejoin="round" opacity="0.92" />
<circle cx="379" cy="253" r="12" fill="#ffd166" />
<text x="379" y="259" class="glyph">v</text>
<polyline points="169,313 169,283 199,283 199,313" fill="none" stroke="#ff5b9f" stroke-width="9" stroke-linecap="round" stroke-linejoin="round" opacity="0.92" />
<circle cx="199" cy="313" r="12" fill="#ff5b9f" />
<text x="199" y="319" class="glyph">v</text>
<polyline points="409,313 409,283 439,283 439,313" fill="none" stroke="#8d7cff" stroke-width="9" stroke-linecap="round" stroke-linejoin="round" opacity="0.92" />
<circle cx="439" cy="313" r="12" fill="#8d7cff" />
<text x="439" y="319" class="glyph">v</text>
<polyline points="109,373 109,343 139,343 139,373" fill="none" stroke="#18d9ff" stroke-width="9" stroke-linecap="round" stroke-linejoin="round" opacity="0.92" />
<circle cx="139" cy="373" r="12" fill="#18d9ff" />
<text x="139" y="379" class="glyph">v</text>
<polyline points="469,373 469,343 499,343 499,373" fill="none" stroke="#f7f2ff" stroke-width="9" stroke-linecap="round" stroke-linejoin="round" opacity="0.92" />
<circle cx="499" cy="373" r="12" fill="#f7f2ff" />
<text x="499" y="379" class="glyph">v</text>
<polyline points="169,433 169,403 199,403 199,433" fill="none" stroke="#62ffb3" stroke-width="9" stroke-linecap="round" stroke-linejoin="round" opacity="0.92" />
<circle cx="199" cy="433" r="12" fill="#62ffb3" />
<text x="199" y="439" class="glyph">v</text>
<polyline points="409,433 409,403 439,403 439,433" fill="none" stroke="#ffd166" stroke-width="9" stroke-linecap="round" stroke-linejoin="round" opacity="0.92" />
<circle cx="439" cy="433" r="12" fill="#ffd166" />
<text x="439" y="439" class="glyph">v</text>
<polyline points="229,493 229,463 259,463 259,493" fill="none" stroke="#ff5b9f" stroke-width="9" stroke-linecap="round" stroke-linejoin="round" opacity="0.92" />
<circle cx="259" cy="493" r="12" fill="#ff5b9f" />
<text x="259" y="499" class="glyph">v</text>
<polyline points="349,493 349,463 379,463 379,493" fill="none" stroke="#8d7cff" stroke-width="9" stroke-linecap="round" stroke-linejoin="round" opacity="0.92" />
<circle cx="379" cy="493" r="12" fill="#8d7cff" />
<text x="379" y="499" class="glyph">v</text>
<polyline points="289,553 289,523 319,523 319,553" fill="none" stroke="#18d9ff" stroke-width="9" stroke-linecap="round" stroke-linejoin="round" opacity="0.92" />
<circle cx="319" cy="553" r="12" fill="#18d9ff" />
<text x="319" y="559" class="glyph">v</text>
<polyline points="289,133 289,103 319,103 319,133" fill="none" stroke="#f7f2ff" stroke-width="9" stroke-linecap="round" stroke-linejoin="round" opacity="0.92" />
<circle cx="319" cy="133" r="12" fill="#f7f2ff" />
<text x="319" y="139" class="glyph">v</text>
<polyline points="229,193 229,163 259,163 259,193" fill="none" stroke="#62ffb3" stroke-width="9" stroke-linecap="round" stroke-linejoin="round" opacity="0.92" />
<circle cx="259" cy="193" r="12" fill="#62ffb3" />
<text x="259" y="199" class="glyph">v</text>
<polyline points="349,193 349,163 379,163 379,193" fill="none" stroke="#ffd166" stroke-width="9" stroke-linecap="round" stroke-linejoin="round" opacity="0.92" />
<circle cx="379" cy="193" r="12" fill="#ffd166" />
<text x="379" y="199" class="glyph">v</text>
<polyline points="169,253 169,223 199,223 199,253" fill="none" stroke="#ff5b9f" stroke-width="9" stroke-linecap="round" stroke-linejoin="round" opacity="0.92" />
<circle cx="199" cy="253" r="12" fill="#ff5b9f" />
<text x="199" y="259" class="glyph">v</text>
<polyline points="409,253 409,223 439,223 439,253" fill="none" stroke="#8d7cff" stroke-width="9" stroke-linecap="round" stroke-linejoin="round" opacity="0.92" />
<circle cx="439" cy="253" r="12" fill="#8d7cff" />
<text x="439" y="259" class="glyph">v</text>
<polyline points="109,313 109,283 139,283 139,313" fill="none" stroke="#18d9ff" stroke-width="9" stroke-linecap="round" stroke-linejoin="round" opacity="0.92" />
<circle cx="139" cy="313" r="12" fill="#18d9ff" />
<text x="139" y="319" class="glyph">v</text>
<polyline points="469,313 469,283 499,283 499,313" fill="none" stroke="#f7f2ff" stroke-width="9" stroke-linecap="round" stroke-linejoin="round" opacity="0.92" />
<circle cx="499" cy="313" r="12" fill="#f7f2ff" />
<text x="499" y="319" class="glyph">v</text>
<polyline points="49,373 49,343 79,343 79,373" fill="none" stroke="#62ffb3" stroke-width="9" stroke-linecap="round" stroke-linejoin="round" opacity="0.92" />
<circle cx="79" cy="373" r="12" fill="#62ffb3" />
<text x="79" y="379" class="glyph">v</text>
<polyline points="109,433 109,403 139,403 139,433" fill="none" stroke="#ffd166" stroke-width="9" stroke-linecap="round" stroke-linejoin="round" opacity="0.92" />
<circle cx="139" cy="433" r="12" fill="#ffd166" />
<text x="139" y="439" class="glyph">v</text>
<polyline points="469,433 469,403 499,403 499,433" fill="none" stroke="#ff5b9f" stroke-width="9" stroke-linecap="round" stroke-linejoin="round" opacity="0.92" />
<circle cx="499" cy="433" r="12" fill="#ff5b9f" />
<text x="499" y="439" class="glyph">v</text>
<polyline points="169,493 169,463 199,463 199,493" fill="none" stroke="#8d7cff" stroke-width="9" stroke-linecap="round" stroke-linejoin="round" opacity="0.92" />
<circle cx="199" cy="493" r="12" fill="#8d7cff" />
<text x="199" y="499" class="glyph">v</text>
<polyline points="409,493 409,463 439,463 439,493" fill="none" stroke="#18d9ff" stroke-width="9" stroke-linecap="round" stroke-linejoin="round" opacity="0.92" />
<circle cx="439" cy="493" r="12" fill="#18d9ff" />
<text x="439" y="499" class="glyph">v</text>
<polyline points="229,553 229,523 259,523 259,553" fill="none" stroke="#f7f2ff" stroke-width="9" stroke-linecap="round" stroke-linejoin="round" opacity="0.92" />
<circle cx="259" cy="553" r="12" fill="#f7f2ff" />
<text x="259" y="559" class="glyph">v</text>
<polyline points="349,553 349,523 379,523 379,553" fill="none" stroke="#62ffb3" stroke-width="9" stroke-linecap="round" stroke-linejoin="round" opacity="0.92" />
<circle cx="379" cy="553" r="12" fill="#62ffb3" />
<text x="379" y="559" class="glyph">v</text>
<polyline points="229,133 229,103 259,103 259,133" fill="none" stroke="#ffd166" stroke-width="9" stroke-linecap="round" stroke-linejoin="round" opacity="0.92" />
<circle cx="259" cy="133" r="12" fill="#ffd166" />
<text x="259" y="139" class="glyph">v</text>
<polyline points="349,133 349,103 379,103 379,133" fill="none" stroke="#ff5b9f" stroke-width="9" stroke-linecap="round" stroke-linejoin="round" opacity="0.92" />
<circle cx="379" cy="133" r="12" fill="#ff5b9f" />
<text x="379" y="139" class="glyph">v</text>
<polyline points="169,193 169,163 199,163 199,193" fill="none" stroke="#8d7cff" stroke-width="9" stroke-linecap="round" stroke-linejoin="round" opacity="0.92" />
<circle cx="199" cy="193" r="12" fill="#8d7cff" />
<text x="199" y="199" class="glyph">v</text>
<polyline points="409,193 409,163 439,163 439,193" fill="none" stroke="#18d9ff" stroke-width="9" stroke-linecap="round" stroke-linejoin="round" opacity="0.92" />
<circle cx="439" cy="193" r="12" fill="#18d9ff" />
<text x="439" y="199" class="glyph">v</text>
<polyline points="109,253 109,223 139,223 139,253" fill="none" stroke="#f7f2ff" stroke-width="9" stroke-linecap="round" stroke-linejoin="round" opacity="0.92" />
<circle cx="139" cy="253" r="12" fill="#f7f2ff" />
<text x="139" y="259" class="glyph">v</text>
<polyline points="469,253 469,223 499,223 499,253" fill="none" stroke="#62ffb3" stroke-width="9" stroke-linecap="round" stroke-linejoin="round" opacity="0.92" />
<circle cx="499" cy="253" r="12" fill="#62ffb3" />
<text x="499" y="259" class="glyph">v</text>
</svg>