<?xml version="1.0" encoding="UTF-8"?>
<svg xmlns="http://www.w3.org/2000/svg" width="488" height="542" viewBox="0 0 488 542">
  <style>
    .bg { fill: #07152f; }
    .panel { fill: #eef4ff; }
    .grid { stroke: #c7d5f0; stroke-width: 1; }
    .title { fill: #f7fbff; font: 700 22px Arial, sans-serif; }
    .meta { fill: #9fc7ff; font: 600 13px Arial, sans-serif; }
    .glyph { fill: #06132c; font: 700 19px Arial, sans-serif; text-anchor: middle; }
  </style>
  <rect class="bg" width="488" height="542" rx="18" />
  <text x="34" y="34" class="title">Level 155</text>
  <text x="34" y="52" class="meta">14x14 - 25 arrows - Normal</text>
  <rect class="panel" x="34" y="88" width="420" height="420" rx="12" />
  <line x1="34" y1="88" x2="454" y2="88" class="grid" />
  <line x1="34" y1="118" x2="454" y2="118" class="grid" />
  <line x1="34" y1="148" x2="454" y2="148" class="grid" />
  <line x1="34" y1="178" x2="454" y2="178" class="grid" />
  <line x1="34" y1="208" x2="454" y2="208" class="grid" />
  <line x1="34" y1="238" x2="454" y2="238" class="grid" />
  <line x1="34" y1="268" x2="454" y2="268" class="grid" />
  <line x1="34" y1="298" x2="454" y2="298" class="grid" />
  <line x1="34" y1="328" x2="454" y2="328" class="grid" />
  <line x1="34" y1="358" x2="454" y2="358" class="grid" />
  <line x1="34" y1="388" x2="454" y2="388" class="grid" />
  <line x1="34" y1="418" x2="454" y2="418" class="grid" />
  <line x1="34" y1="448" x2="454" y2="448" class="grid" />
  <line x1="34" y1="478" x2="454" y2="478" class="grid" />
  <line x1="34" y1="508" x2="454" y2="508" class="grid" />
  <line x1="34" y1="88" x2="34" y2="508" class="grid" />
  <line x1="64" y1="88" x2="64" y2="508" class="grid" />
  <line x1="94" y1="88" x2="94" y2="508" class="grid" />
  <line x1="124" y1="88" x2="124" y2="508" class="grid" />
  <line x1="154" y1="88" x2="154" y2="508" class="grid" />
  <line x1="184" y1="88" x2="184" y2="508" class="grid" />
  <line x1="214" y1="88" x2="214" y2="508" class="grid" />
  <line x1="244" y1="88" x2="244" y2="508" class="grid" />
  <line x1="274" y1="88" x2="274" y2="508" class="grid" />
  <line x1="304" y1="88" x2="304" y2="508" class="grid" />
  <line x1="334" y1="88" x2="334" y2="508" class="grid" />
  <line x1="364" y1="88" x2="364" y2="508" class="grid" />
  <line x1="394" y1="88" x2="394" y2="508" class="grid" />
  <line x1="424" y1="88" x2="424" y2="508" class="grid" />
  <line x1="454" y1="88" x2="454" y2="508" class="grid" />
  <polyline points="229,253 229,283 259,283" fill="none" stroke="#18d9ff" stroke-width="9" stroke-linecap="round" stroke-linejoin="round" opacity="0.92" />
<circle cx="259" cy="283" r="12" fill="#18d9ff" />
<text x="259" y="289" class="glyph">></text>
<polyline points="289,313 289,343 319,343" fill="none" stroke="#f7f2ff" stroke-width="9" stroke-linecap="round" stroke-linejoin="round" opacity="0.92" />
<circle cx="319" cy="343" r="12" fill="#f7f2ff" />
<text x="319" y="349" class="glyph">></text>
<polyline points="289,253 289,283 319,283" fill="none" stroke="#62ffb3" stroke-width="9" stroke-linecap="round" stroke-linejoin="round" opacity="0.92" />
<circle cx="319" cy="283" r="12" fill="#62ffb3" />
<text x="319" y="289" class="glyph">></text>
<polyline points="169,313 169,343 199,343" fill="none" stroke="#ffd166" stroke-width="9" stroke-linecap="round" stroke-linejoin="round" opacity="0.92" />
<circle cx="199" cy="343" r="12" fill="#ffd166" />
<text x="199" y="349" class="glyph">></text>
<polyline points="229,373 229,403 259,403" fill="none" stroke="#ff5b9f" stroke-width="9" stroke-linecap="round" stroke-linejoin="round" opacity="0.92" />
<circle cx="259" cy="403" r="12" fill="#ff5b9f" />
<text x="259" y="409" class="glyph">></text>
<polyline points="229,193 229,223 259,223" fill="none" stroke="#8d7cff" stroke-width="9" stroke-linecap="round" stroke-linejoin="round" opacity="0.92" />
<circle cx="259" cy="223" r="12" fill="#8d7cff" />
<text x="259" y="229" class="glyph">></text>
<polyline points="169,253 169,283 199,283" fill="none" stroke="#18d9ff" stroke-width="9" stroke-linecap="round" stroke-linejoin="round" opacity="0.92" />
<circle cx="199" cy="283" r="12" fill="#18d9ff" />
<text x="199" y="289" class="glyph">></text>
<polyline points="349,313 349,343 379,343" fill="none" stroke="#f7f2ff" stroke-width="9" stroke-linecap="round" stroke-linejoin="round" opacity="0.92" />
<circle cx="379" cy="343" r="12" fill="#f7f2ff" />
<text x="379" y="349" class="glyph">></text>
<polyline points="289,373 289,403 319,403" fill="none" stroke="#62ffb3" stroke-width="9" stroke-linecap="round" stroke-linejoin="round" opacity="0.92" />
<circle cx="319" cy="403" r="12" fill="#62ffb3" />
<text x="319" y="409" class="glyph">></text>
<polyline points="289,193 289,223 319,223" fill="none" stroke="#ffd166" stroke-width="9" stroke-linecap="round" stroke-linejoin="round" opacity="0.92" />
<circle cx="319" cy="223" r="12" fill="#ffd166" />
<text x="319" y="229" class="glyph">></text>
<polyline points="349,253 349,283 379,283" fill="none" stroke="#ff5b9f" stroke-width="9" stroke-linecap="round" stroke-linejoin="round" opacity="0.92" />
<circle cx="379" cy="283" r="12" fill="#ff5b9f" />
<text x="379" y="289" class="glyph">></text>
<polyline points="109,313 109,343 139,343" fill="none" stroke="#8d7cff" stroke-width="9" stroke-linecap="round" stroke-linejoin="round" opacity="0.92" />
<circle cx="139" cy="343" r="12" fill="#8d7cff" />
<text x="139" y="349" class="glyph">></text>
<polyline points="169,373 169,403 199,403" fill="none" stroke="#18d9ff" stroke-width="9" stroke-linecap="round" stroke-linejoin="round" opacity="0.92" />
<circle cx="199" cy="403" r="12" fill="#18d9ff" />
<text x="199" y="409" class="glyph">></text>
<polyline points="229,433 229,463 259,463" fill="none" stroke="#f7f2ff" stroke-width="9" stroke-linecap="round" stroke-linejoin="round" opacity="0.92" />
<circle cx="259" cy="463" r="12" fill="#f7f2ff" />
<text x="259" y="469" class="glyph">></text>
<polyline points="229,133 229,163 259,163" fill="none" stroke="#62ffb3" stroke-width="9" stroke-linecap="round" stroke-linejoin="round" opacity="0.92" />
<circle cx="259" cy="163" r="12" fill="#62ffb3" />
<text x="259" y="169" class="glyph">></text>
<polyline points="169,193 169,223 199,223" fill="none" stroke="#ffd166" stroke-width="9" stroke-linecap="round" stroke-linejoin="round" opacity="0.92" />
<circle cx="199" cy="223" r="12" fill="#ffd166" />
<text x="199" y="229" class="glyph">></text>
<polyline points="109,253 109,283 139,283" fill="none" stroke="#ff5b9f" stroke-width="9" stroke-linecap="round" stroke-linejoin="round" opacity="0.92" />
<circle cx="139" cy="283" r="12" fill="#ff5b9f" />
<text x="139" y="289" class="glyph">></text>
<polyline points="409,313 409,343 439,343" fill="none" stroke="#8d7cff" stroke-width="9" stroke-linecap="round" stroke-linejoin="round" opacity="0.92" />
<circle cx="439" cy="343" r="12" fill="#8d7cff" />
<text x="439" y="349" class="glyph">></text>
<polyline points="349,373 349,403 379,403" fill="none" stroke="#18d9ff" stroke-width="9" stroke-linecap="round" stroke-linejoin="round" opacity="0.92" />
<circle cx="379" cy="403" r="12" fill="#18d9ff" />
<text x="379" y="409" class="glyph">></text>
<polyline points="289,433 289,463 319,463" fill="none" stroke="#f7f2ff" stroke-width="9" stroke-linecap="round" stroke-linejoin="round" opacity="0.92" />
<circle cx="319" cy="463" r="12" fill="#f7f2ff" />
<text x="319" y="469" class="glyph">></text>
<polyline points="289,133 289,163 319,163" fill="none" stroke="#62ffb3" stroke-width="9" stroke-linecap="round" stroke-linejoin="round" opacity="0.92" />
<circle cx="319" cy="163" r="12" fill="#62ffb3" />
<text x="319" y="169" class="glyph">></text>
<polyline points="349,193 349,223 379,223" fill="none" stroke="#ffd166" stroke-width="9" stroke-linecap="round" stroke-linejoin="round" opacity="0.92" />
<circle cx="379" cy="223" r="12" fill="#ffd166" />
<text x="379" y="229" class="glyph">></text>
<polyline points="409,253 409,283 439,283" fill="none" stroke="#ff5b9f" stroke-width="9" stroke-linecap="round" stroke-linejoin="round" opacity="0.92" />
<circle cx="439" cy="283" r="12" fill="#ff5b9f" />
<text x="439" y="289" class="glyph">></text>
<polyline points="49,313 49,343 79,343" fill="none" stroke="#8d7cff" stroke-width="9" stroke-linecap="round" stroke-linejoin="round" opacity="0.92" />
<circle cx="79" cy="343" r="12" fill="#8d7cff" />
<text x="79" y="349" class="glyph">></text>
<polyline points="109,373 109,403 139,403" fill="none" stroke="#18d9ff" stroke-width="9" stroke-linecap="round" stroke-linejoin="round" opacity="0.92" />
<circle cx="139" cy="403" r="12" fill="#18d9ff" />
<text x="139" y="409" class="glyph">></text>
</svg>