<?xml version="1.0" encoding="UTF-8"?>
<svg xmlns="http://www.w3.org/2000/svg" width="338" height="392" viewBox="0 0 338 392">
  <style>
    .bg { fill: #07152f; }
    .panel { fill: #eef4ff; }
    .grid { stroke: #c7d5f0; stroke-width: 1; }
    .title { fill: #f7fbff; font: 700 22px Arial, sans-serif; }
    .meta { fill: #9fc7ff; font: 600 13px Arial, sans-serif; }
    .glyph { fill: #06132c; font: 700 19px Arial, sans-serif; text-anchor: middle; }
  </style>
  <rect class="bg" width="338" height="392" rx="18" />
  <text x="34" y="34" class="title">Level 9</text>
  <text x="34" y="52" class="meta">9x9 - 11 arrows - Easy</text>
  <rect class="panel" x="34" y="88" width="270" height="270" rx="12" />
  <line x1="34" y1="88" x2="304" y2="88" class="grid" />
  <line x1="34" y1="118" x2="304" y2="118" class="grid" />
  <line x1="34" y1="148" x2="304" y2="148" class="grid" />
  <line x1="34" y1="178" x2="304" y2="178" class="grid" />
  <line x1="34" y1="208" x2="304" y2="208" class="grid" />
  <line x1="34" y1="238" x2="304" y2="238" class="grid" />
  <line x1="34" y1="268" x2="304" y2="268" class="grid" />
  <line x1="34" y1="298" x2="304" y2="298" class="grid" />
  <line x1="34" y1="328" x2="304" y2="328" class="grid" />
  <line x1="34" y1="358" x2="304" y2="358" class="grid" />
  <line x1="34" y1="88" x2="34" y2="358" class="grid" />
  <line x1="64" y1="88" x2="64" y2="358" class="grid" />
  <line x1="94" y1="88" x2="94" y2="358" class="grid" />
  <line x1="124" y1="88" x2="124" y2="358" class="grid" />
  <line x1="154" y1="88" x2="154" y2="358" class="grid" />
  <line x1="184" y1="88" x2="184" y2="358" class="grid" />
  <line x1="214" y1="88" x2="214" y2="358" class="grid" />
  <line x1="244" y1="88" x2="244" y2="358" class="grid" />
  <line x1="274" y1="88" x2="274" y2="358" class="grid" />
  <line x1="304" y1="88" x2="304" y2="358" class="grid" />
  <polyline points="109,133 139,133 139,163" fill="none" stroke="#18d9ff" stroke-width="9" stroke-linecap="round" stroke-linejoin="round" opacity="0.92" />
<circle cx="139" cy="163" r="12" fill="#18d9ff" />
<text x="139" y="169" class="glyph">v</text>
<polyline points="169,133 199,133 199,163" fill="none" stroke="#f7f2ff" stroke-width="9" stroke-linecap="round" stroke-linejoin="round" opacity="0.92" />
<circle cx="199" cy="163" r="12" fill="#f7f2ff" />
<text x="199" y="169" class="glyph">v</text>
<polyline points="229,133 259,133 259,163" fill="none" stroke="#62ffb3" stroke-width="9" stroke-linecap="round" stroke-linejoin="round" opacity="0.92" />
<circle cx="259" cy="163" r="12" fill="#62ffb3" />
<text x="259" y="169" class="glyph">v</text>
<polyline points="49,193 79,193 79,223" fill="none" stroke="#ffd166" stroke-width="9" stroke-linecap="round" stroke-linejoin="round" opacity="0.92" />
<circle cx="79" cy="223" r="12" fill="#ffd166" />
<text x="79" y="229" class="glyph">v</text>
<polyline points="109,193 139,193 139,223" fill="none" stroke="#ff5b9f" stroke-width="9" stroke-linecap="round" stroke-linejoin="round" opacity="0.92" />
<circle cx="139" cy="223" r="12" fill="#ff5b9f" />
<text x="139" y="229" class="glyph">v</text>
<polyline points="169,193 199,193 199,223" fill="none" stroke="#8d7cff" stroke-width="9" stroke-linecap="round" stroke-linejoin="round" opacity="0.92" />
<circle cx="199" cy="223" r="12" fill="#8d7cff" />
<text x="199" y="229" class="glyph">v</text>
<polyline points="229,193 259,193 259,223" fill="none" stroke="#18d9ff" stroke-width="9" stroke-linecap="round" stroke-linejoin="round" opacity="0.92" />
<circle cx="259" cy="223" r="12" fill="#18d9ff" />
<text x="259" y="229" class="glyph">v</text>
<polyline points="49,253 79,253 79,283" fill="none" stroke="#f7f2ff" stroke-width="9" stroke-linecap="round" stroke-linejoin="round" opacity="0.92" />
<circle cx="79" cy="283" r="12" fill="#f7f2ff" />
<text x="79" y="289" class="glyph">v</text>
<polyline points="109,253 139,253 139,283" fill="none" stroke="#62ffb3" stroke-width="9" stroke-linecap="round" stroke-linejoin="round" opacity="0.92" />
<circle cx="139" cy="283" r="12" fill="#62ffb3" />
<text x="139" y="289" class="glyph">v</text>
<polyline points="169,253 199,253 199,283" fill="none" stroke="#ffd166" stroke-width="9" stroke-linecap="round" stroke-linejoin="round" opacity="0.92" />
<circle cx="199" cy="283" r="12" fill="#ffd166" />
<text x="199" y="289" class="glyph">v</text>
<polyline points="229,253 259,253 259,283" fill="none" stroke="#ff5b9f" stroke-width="9" stroke-linecap="round" stroke-linejoin="round" opacity="0.92" />
<circle cx="259" cy="283" r="12" fill="#ff5b9f" />
<text x="259" y="289" class="glyph">v</text>
</svg>